<?xml version="1.0" encoding="UTF-8" standalone="no"?>
<!-- Created with Inkscape (http://www.inkscape.org/) -->

<svg
   xmlns:dc="http://purl.org/dc/elements/1.1/"
   xmlns:cc="http://creativecommons.org/ns#"
   xmlns:rdf="http://www.w3.org/1999/02/22-rdf-syntax-ns#"
   xmlns:svg="http://www.w3.org/2000/svg"
   xmlns="http://www.w3.org/2000/svg"
   xmlns:sodipodi="http://sodipodi.sourceforge.net/DTD/sodipodi-0.dtd"
   xmlns:inkscape="http://www.inkscape.org/namespaces/inkscape"
   id="svg2985"
   version="1.1"
   inkscape:version="0.48.2 r9819"
   width="1000"
   height="322.06839"
   xml:space="preserve"
   sodipodi:docname="A.svg"><metadata
     id="metadata2991"><rdf:RDF><cc:Work
         rdf:about=""><dc:format>image/svg+xml</dc:format><dc:type
           rdf:resource="http://purl.org/dc/dcmitype/StillImage" /><dc:title></dc:title></cc:Work></rdf:RDF></metadata><defs
     id="defs2989"><clipPath
       clipPathUnits="userSpaceOnUse"
       id="clipPath2999"><path
         d="m 64.068,48 391,0 0,642 -391,0 0,-642 z"
         id="path3001"
         inkscape:connector-curvature="0" /></clipPath><clipPath
       clipPathUnits="userSpaceOnUse"
       id="clipPath3245"><path
         d="m 470.777,69.838 114.5,0 0,32.855 -114.5,0 0,-32.855 z"
         id="path3247"
         inkscape:connector-curvature="0" /></clipPath><clipPath
       clipPathUnits="userSpaceOnUse"
       id="clipPath3253"><path
         d="m 471.645,11.958 112.163,0 0,90.73 -112.163,0 0,-90.73 z"
         id="path3255"
         inkscape:connector-curvature="0" /></clipPath><clipPath
       clipPathUnits="userSpaceOnUse"
       id="clipPath3367"><path
         d="m 535.528,707.665 40.5,0 c 4.9705,0 9,-4.0294 9,-9 l 0,-14.19 c 0,-4.9705 -4.0295,-9 -9,-9 l -81,0 c -4.9706,0 -9,4.0295 -9,9 l 0,14.19 c 0,4.9706 4.0294,9 9,9"
         clip-rule="evenodd"
         id="path3369"
         inkscape:connector-curvature="0" /></clipPath><linearGradient
       x1="-128"
       y1="0"
       x2="128"
       y2="0"
       gradientUnits="userSpaceOnUse"
       gradientTransform="matrix(0,-0.1336,-0.3945,0,535.532,691.5647)"
       id="linearGradient3375"><stop
         style="stop-opacity:1;stop-color:#bbd4e0"
         offset="0"
         id="stop3377" /><stop
         style="stop-opacity:1;stop-color:#cbdee7"
         offset="0.5"
         id="stop3379" /><stop
         style="stop-opacity:1;stop-color:#dce9ef"
         offset="1"
         id="stop3381" /></linearGradient><clipPath
       clipPathUnits="userSpaceOnUse"
       id="clipPath3395"><path
         d="m 469,778.4 133,0 0,-88 -16.972,0 0,8.265 c 0,2.387 -0.948,4.676 -2.636,6.364 -1.688,1.688 -3.977,2.636 -6.364,2.636 l -81,0 c -2.387,0 -4.6759,-0.948 -6.3641,-2.636 -1.6879,-1.688 -2.6359,-3.977 -2.6359,-6.364 l 0,-8.265 -17.028,0"
         clip-rule="evenodd"
         id="path3397"
         inkscape:connector-curvature="0" /></clipPath><clipPath
       clipPathUnits="userSpaceOnUse"
       id="clipPath3407"><path
         d="m 486.028,698.665 c 0,2.387 0.948,4.676 2.6359,6.364 1.6882,1.688 3.9771,2.636 6.3641,2.636 l 81,0 c 2.387,0 4.676,-0.948 6.364,-2.636 1.688,-1.688 2.636,-3.977 2.636,-6.364 l 0,-8.265 -99,0"
         clip-rule="evenodd"
         id="path3409"
         inkscape:connector-curvature="0" /></clipPath><clipPath
       clipPathUnits="userSpaceOnUse"
       id="clipPath3419"><path
         d="m 514.3416,691.6961 0,1.7351 -7.153,0 0,-1.7351 2.604,0 0,-8.2325 1.945,0 0,8.2325 2.604,0 z m 8.3745,1.7351 -2.03,0 -2.002,-6.4958 -2.002,6.4958 -2.016,0 3.29,-9.9676 1.456,0 3.304,9.9676 z m 30.8948,-9.9676 -2.225,4.2972 c 0.9655,0.3502 1.8191,1.2188 1.8191,2.6191 0,1.666 -1.2034,3.0513 -3.2339,3.0513 l -3.9062,0 0,-9.9676 1.945,0 0,3.975 1.4008,0 1.9472,-3.975 2.253,0 z m -2.351,6.9163 c 0,-0.7702 -0.5604,-1.3163 -1.4149,-1.3163 l -1.8351,0 0,2.6325 1.8351,0 c 0.8545,0 1.4149,-0.5461 1.4149,-1.3162 z m 9.182,-6.9162 0,4.8011 c 0,1.7083 -1.064,2.5763 -3.1086,2.5763 -1.2184,0 -1.9184,-0.224 -2.6324,-1.008 l 1.162,-1.1342 c 0.3779,0.4342 0.7001,0.6022 1.4004,0.6022 0.9664,0 1.3585,-0.3501 1.3585,-1.1483 l 0,-0.3642 -1.7226,0 c -1.6944,0 -2.4923,-0.9512 -2.4923,-2.1125 0,-0.6436 0.21,-1.2318 0.602,-1.638 0.434,-0.4343 1.036,-0.6445 1.8622,-0.6445 0.8404,0 1.3025,0.2102 1.7928,0.7005 l 0,-0.6304 1.778,0 z m -1.8201,2.6882 c 0,-0.4478 -0.07,-0.7416 -0.2661,-0.9235 -0.3221,-0.3078 -0.6442,-0.3498 -1.1484,-0.3498 -0.7143,0 -1.0504,0.3358 -1.0504,0.8395 0,0.5177 0.3641,0.8255 1.0224,0.8255 l 1.4425,0 0,-0.3917 z m 9.451,-2.6893 0,9.9686 -1.8201,0 0,-3.3179 c -0.4763,0.5319 -1.0368,0.7278 -1.7794,0.7278 -0.7145,0 -1.3725,-0.2519 -1.7785,-0.6578 -0.728,-0.7277 -0.742,-1.974 -0.742,-3.0664 0,-1.0924 0.014,-2.3527 0.742,-3.0805 0.406,-0.4058 1.078,-0.6578 1.7925,-0.6578 0.7706,0 1.303,0.21 1.8075,0.7698 l 0,-0.6858 1.778,0 z m -1.8201,3.6543 c 0,-1.1904 -0.1541,-2.1008 -1.247,-2.1008 -1.0929,0 -1.2329,0.9104 -1.2329,2.1008 0,1.1904 0.14,2.0867 1.2329,2.0867 1.0929,0 1.247,-0.8963 1.247,-2.0867 z m 5.5441,4.8842 0,1.485 -1.862,0 0,-1.485 1.862,0 z m -0.014,-8.5375 0,7.2919 -1.82,0 0,-7.2919 1.82,0 z m 7.741,3.6533 c 0,1.3164 -0.168,2.1427 -0.826,2.8285 -0.448,0.4759 -1.1901,0.8957 -2.2685,0.8957 -1.0785,0 -1.8065,-0.4198 -2.2545,-0.8957 -0.658,-0.6858 -0.826,-1.5121 -0.826,-2.8285 0,-1.3305 0.168,-2.1568 0.826,-2.8425 0.448,-0.4759 1.176,-0.8958 2.2545,-0.8958 1.0784,0 1.8205,0.4199 2.2685,0.8958 0.658,0.6857 0.826,1.512 0.826,2.8425 z m -1.82,0 c 0,-0.7563 -0.0421,-1.4005 -0.4202,-1.7786 -0.2101,-0.2101 -0.4902,-0.3222 -0.8543,-0.3222 -0.3642,0 -0.6303,0.1121 -0.8404,0.3222 -0.3781,0.3781 -0.4201,1.0223 -0.4201,1.7786 0,0.7563 0.042,1.3865 0.4201,1.7646 0.2101,0.2101 0.4762,0.3221 0.8404,0.3221 0.3641,0 0.6442,-0.112 0.8543,-0.3221 0.3781,-0.3781 0.4202,-1.0083 0.4202,-1.7646"
         id="path3421"
         inkscape:connector-curvature="0" /></clipPath><clipPath
       clipPathUnits="userSpaceOnUse"
       id="clipPath3427"><path
         d="m 507.1899,690.4 72.338,0 0,3.093 -72.338,0 0,-3.093 z"
         id="path3429"
         inkscape:connector-curvature="0" /></clipPath><clipPath
       clipPathUnits="userSpaceOnUse"
       id="clipPath3439"><path
         d="m 477,702 117,0 0,72 -117,0 0,-72 z"
         id="path3441"
         inkscape:connector-curvature="0" /></clipPath><linearGradient
       x1="-128"
       y1="0"
       x2="128"
       y2="0"
       gradientUnits="userSpaceOnUse"
       gradientTransform="matrix(0,-0.2891,-0.4648,0,535.5056,737.995)"
       id="linearGradient3447"><stop
         style="stop-opacity:1;stop-color:#bbd4e0"
         offset="0"
         id="stop3449" /><stop
         style="stop-opacity:1;stop-color:#c8dce6"
         offset="0.5"
         id="stop3451" /><stop
         style="stop-opacity:1;stop-color:#d5e5ec"
         offset="1"
         id="stop3453" /></linearGradient><clipPath
       clipPathUnits="userSpaceOnUse"
       id="clipPath3505"><path
         d="m 74.857,656.369 51.525,0 0,25.424 -51.525,0 0,-25.424 z"
         id="path3507"
         inkscape:connector-curvature="0" /></clipPath><clipPath
       clipPathUnits="userSpaceOnUse"
       id="clipPath3513"><path
         d="m 80.206,679.9334 0,-21.2024 41.9682,0 0,21.2024"
         id="path3515"
         inkscape:connector-curvature="0" /></clipPath><clipPath
       clipPathUnits="userSpaceOnUse"
       id="clipPath3751"><path
         d="m 82.287,543.632 39.868,0 0,12.5851 -39.868,0 0,-12.5851 z"
         id="path3753"
         inkscape:connector-curvature="0" /></clipPath><clipPath
       clipPathUnits="userSpaceOnUse"
       id="clipPath3759"><path
         d="m 86.286,558.6846 0,-16.4026 32.4676,0 0,16.4026"
         id="path3761"
         inkscape:connector-curvature="0" /></clipPath><clipPath
       clipPathUnits="userSpaceOnUse"
       id="clipPath3807"><path
         d="m 73.711,475.342 79.144,0 0,40.511 -79.144,0 0,-40.511 z"
         id="path3809"
         inkscape:connector-curvature="0" /></clipPath><clipPath
       clipPathUnits="userSpaceOnUse"
       id="clipPath3815"><path
         d="m 78.227,513.2735 0,-26.7735 52.9958,0 0,26.7735"
         id="path3817"
         inkscape:connector-curvature="0" /></clipPath></defs><sodipodi:namedview
     pagecolor="#ffffff"
     bordercolor="#666666"
     borderopacity="1"
     objecttolerance="10"
     gridtolerance="10"
     guidetolerance="10"
     inkscape:pageopacity="0"
     inkscape:pageshadow="2"
     inkscape:window-width="1264"
     inkscape:window-height="1031"
     id="namedview2987"
     showgrid="false"
     fit-margin-left="0.5"
     fit-margin-bottom="0.5"
     fit-margin-top="0.5"
     fit-margin-right="0.5"
     inkscape:zoom="0.25"
     inkscape:cx="1765.4273"
     inkscape:cy="-561.77631"
     inkscape:window-x="647"
     inkscape:window-y="-13"
     inkscape:window-maximized="0"
     inkscape:current-layer="g3007"><inkscape:grid
       type="xygrid"
       id="grid4861"
       empspacing="5"
       visible="true"
       enabled="true"
       snapvisiblegridlinesonly="true" /></sodipodi:namedview><g
     id="g2993"
     inkscape:groupmode="layer"
     inkscape:label="Funding-Emergency-512"
     transform="matrix(1.25,0,0,-1.25,-109.60914,961.8195)"><g
       id="g3007"
       transform="translate(1.4603092,-21.904637)"><path
         style="fill:#114375;fill-opacity:1;stroke:none"
         d="m 198.02472,790.96024 c -80.62866,-205.95353 -40.31433,-102.97677 0,0 z m 0,0 -41.0013,-256.85472 617.21604,0 41.0013,256.85472 z m 622.47679,0 -41.0013,-256.85472 66.41018,0 13.93827,90.97842 c -14.57342,1.44286 -30.4798,14.72933 -30.4798,34.81857 0,24.63118 22.59001,37.99347 41.21824,34.81856 l 15.2399,96.23917 z m -668.73884,-256.85472 41.0013,256.85472 -66.4373,0 -15.02296,-95.91376 c 17.93674,-3.19256 30.58827,-18.33101 30.58827,-35.36091 0,-25.41148 -24.70883,-38.40148 -41.35382,-34.7101 L 86.627,534.10552 z"
         id="path4863"
         inkscape:connector-curvature="0"
         sodipodi:nodetypes="cccccccccccscccccccsccc" /><path
         style="fill:#ffffff;stroke:none"
         d="m 222.86413,573.14395 28.35582,182.22801 51.47741,0 18.97431,-80.55419 14.00028,80.55419 51.47741,0 -28.91585,-182.22801 -50.77737,0 -21.48592,77.87286 -13.43419,-77.87286 z"
         id="path4865"
         inkscape:connector-curvature="0"
         sodipodi:nodetypes="ccccccccccc" /><path
         style="fill:#ffffff;stroke:none"
         d="m 373.57304,571.40844 28.77585,182.22802 91.25401,0 -6.94202,-43.38762 -42.07214,0 -3.91874,-25.16483 37.59337,0 -6.6343,-42.95375 -37.76109,0 -4.19875,-27.33419 41.81984,0 -6.68973,-43.38763 z"
         id="path4867"
         inkscape:connector-curvature="0"
         sodipodi:nodetypes="ccccccccccccc" /><path
         sodipodi:nodetypes="ccccccccccc"
         inkscape:connector-curvature="0"
         id="path4869"
         d="m 585.43616,572.27619 28.35582,182.22802 51.47741,0 18.9743,-80.55419 14.00029,80.55419 51.47741,0 -28.91585,-182.22802 -50.77737,0 -21.48593,77.87287 -13.43418,-77.87287 z"
         style="fill:#ffffff;stroke:none" /><path
         style="fill:#ffffff;stroke:none"
         d="m 486.34348,633.39937 -8.90991,-57.6174 c 0,0 15.82442,-7.57342 37.02562,-7.57342 38.12893,0 70.42318,31.81035 70.42318,72.09782 0,36.64267 -37.52153,43.29288 -37.52153,58.31237 0,7.79462 7.88774,12.88053 14.7006,12.88053 12.78336,0 22.5628,-11.59358 27.58112,-19.74081 l 8.61035,55.72227 c 0,0 -14.90288,9.17037 -35.14143,9.17037 -41.68257,0 -67.41274,-38.51997 -67.41274,-69.16281 0,-36.85898 37.0315,-44.9688 37.0315,-60.13244 0,-7.62542 -7.75349,-14.6306 -17.2207,-14.6306 -10.49802,0 -21.98924,7.41976 -29.16606,20.67412 z"
         id="path4871"
         inkscape:connector-curvature="0"
         sodipodi:nodetypes="ccccccccccccc" /></g></g></svg>